<svg xmlns="http://www.w3.org/2000/svg" xmlns:xlink="http://www.w3.org/1999/xlink" width="28" height="28" viewBox="0 0 28 28"><defs><path id="exmea" d="M1310.502 2675.783c0 7.599-6.182 13.78-13.78 13.78-7.599 0-13.78-6.181-13.78-13.78 0-7.598 6.181-13.78 13.78-13.78 7.598 0 13.78 6.182 13.78 13.78zm-6.05-4.793a6.316 6.316 0 0 1-1.822.499 3.185 3.185 0 0 0 1.395-1.755 6.32 6.32 0 0 1-2.015.77 3.172 3.172 0 0 0-5.405 2.893 9.005 9.005 0 0 1-6.537-3.315 3.158 3.158 0 0 0-.429 1.595c0 1.1.56 2.072 1.41 2.64a3.162 3.162 0 0 1-1.436-.396v.04a3.173 3.173 0 0 0 2.544 3.11 3.203 3.203 0 0 1-1.432.053 3.175 3.175 0 0 0 2.963 2.203 6.366 6.366 0 0 1-4.696 1.313 8.972 8.972 0 0 0 4.862 1.425c5.835 0 9.025-4.833 9.025-9.024 0-.138-.003-.275-.01-.412a6.413 6.413 0 0 0 1.582-1.64z"/></defs><g><g transform="translate(-1283 -2662)"><use fill="#3d3741" xlink:href="#exmea"/></g></g></svg>