<svg xmlns="http://www.w3.org/2000/svg" xmlns:xlink="http://www.w3.org/1999/xlink" width="13" height="11" viewBox="0 0 13 11"><defs><path id="4h5ja" d="M872.145 2116.506l-4.635 3.272a.34.34 0 0 0-.145.278v4.237c0 .188.153.341.342.341h1.024v-3.755c0-.188.153-.341.341-.341h2.049c.188 0 .341.153.341.341v3.755h5.12a.341.341 0 0 0 .342-.341v-4.237a.34.34 0 0 0-.144-.278zm.124-1.43c.141 0 .279.043.394.125l5.337 3.767c.182.128.29.336.29.558v5.79a.683.683 0 0 1-.683.684h-10.924a.683.683 0 0 1-.683-.683v-5.791c0-.222.108-.43.289-.558l5.337-3.767a.682.682 0 0 1 .394-.125zm2.948 6.827h-2.048a.341.341 0 0 1-.342-.341v-.683c0-.188.153-.341.342-.341h2.048c.189 0 .342.153.342.341v.683a.341.341 0 0 1-.342.341z"/></defs><g><g transform="translate(-866 -2115)"><use fill="#fff" xlink:href="#4h5ja"/></g></g></svg>