<svg xmlns="http://www.w3.org/2000/svg" xmlns:xlink="http://www.w3.org/1999/xlink" width="13" height="13" viewBox="0 0 13 13"><defs><path id="5666a" d="M877.25 2166.936v2.297a.767.767 0 0 1-.767.767h-10.716a.767.767 0 0 1-.767-.767v-2.297a4.588 4.588 0 0 1 2.516-4.092 3.812 3.812 0 0 1-.22-1.266 3.828 3.828 0 1 1 7.657 0c0 .444-.08.87-.219 1.266a4.588 4.588 0 0 1 2.516 4.092zm-8.422-5.358a2.3 2.3 0 0 0 2.297 2.297 2.3 2.3 0 0 0 2.297-2.297 2.3 2.3 0 0 0-2.297-2.297 2.3 2.3 0 0 0-2.297 2.297zm6.89 5.358a3.063 3.063 0 0 0-1.774-2.774 3.814 3.814 0 0 1-5.638 0 3.063 3.063 0 0 0-1.775 2.774v1.532h9.188z"/></defs><g><g transform="translate(-865 -2157)"><use fill="#fff" xlink:href="#5666a"/></g></g></svg>