<svg xmlns="http://www.w3.org/2000/svg" xmlns:xlink="http://www.w3.org/1999/xlink" width="31" height="30"><defs><path id="a" d="M1352.162 2675.979c0 8.17-6.625 14.794-14.795 14.794s-14.795-6.624-14.795-14.794c0-8.17 6.624-14.795 14.795-14.795 8.17 0 14.795 6.622 14.795 14.795zm-7.042-7.194a.56.56 0 0 0-.56-.56h-14.387a.56.56 0 0 0-.56.56v14.386c0 .31.252.56.56.56h14.387a.56.56 0 0 0 .56-.56zm-7.753 4.092a3.101 3.101 0 1 1 0 6.203 3.101 3.101 0 0 1 0-6.203zm3.101-3.1h3.101v3.1h-3.1zm1.408 5.426h1.693v6.978h-12.404v-6.978h1.692c-.065.312-.103.445-.103.776a4.618 4.618 0 0 0 4.613 4.612 4.617 4.617 0 0 0 4.612-4.612c0-.33-.036-.464-.103-.776z"/></defs><use fill="#3d3741" xlink:href="#a" transform="translate(-1322 -2661)"/></svg>